<?xml version="1.0" standalone="no"?>
<!DOCTYPE svg PUBLIC "-//W3C//DTD SVG 20010904//EN"
 "http://www.w3.org/TR/2001/REC-SVG-20010904/DTD/svg10.dtd">
<svg version="1.0" xmlns="http://www.w3.org/2000/svg"
 width="512.000000pt" height="512.000000pt" viewBox="0 0 512.000000 512.000000"
 preserveAspectRatio="xMidYMid meet">
<metadata>
Created by potrace 1.16, written by Peter Selinger 2001-2019
</metadata>
<g transform="translate(0.000000,512.000000) scale(0.100000,-0.100000)"
fill="#000000" stroke="none">
<path d="M2120 5014 c-25 -2 -117 -8 -205 -14 -393 -27 -819 -90 -1195 -176
-154 -36 -197 -51 -217 -76 -15 -17 -49 -292 -64 -508 -13 -194 -7 -614 11
-800 60 -622 204 -1172 470 -1790 73 -172 111 -241 159 -290 20 -21 72 -78
116 -128 142 -160 566 -574 700 -683 237 -192 333 -248 495 -290 73 -18 102
-21 215 -16 234 9 394 77 614 260 356 296 677 588 817 745 152 170 199 253
277 497 175 542 268 1013 307 1550 13 183 13 655 0 826 -25 321 -64 596 -89
620 -26 26 -431 119 -761 174 -410 69 -734 96 -1220 100 -212 1 -405 1 -430
-1z m1030 -148 c448 -43 914 -123 1256 -215 l42 -11 11 -74 c48 -324 65 -609
58 -976 -10 -514 -67 -934 -192 -1415 -64 -245 -62 -240 -90 -253 -47 -21
-114 -93 -229 -245 -63 -84 -160 -204 -216 -267 -250 -284 -415 -478 -508
-597 -116 -149 -141 -174 -241 -242 -75 -51 -161 -89 -266 -116 -85 -22 -95
-20 -95 13 0 41 56 305 85 407 39 131 42 185 15 286 -31 116 -34 139 -21 139
6 0 11 5 11 11 0 25 44 69 93 93 30 15 102 34 171 46 66 12 157 36 207 55 49
19 95 35 102 35 7 0 51 13 98 28 110 37 139 44 139 33 0 -5 -32 -49 -71 -97
-95 -120 -172 -237 -219 -336 -42 -86 -49 -118 -27 -118 18 0 158 130 214 199
25 31 108 126 185 212 167 187 283 334 384 486 97 147 124 204 124 271 0 62
14 100 65 170 20 29 32 52 27 52 -5 0 -29 -9 -53 -20 -112 -50 -312 -8 -768
165 -118 44 -127 46 -170 35 -25 -6 -51 -16 -58 -22 -15 -12 -18 -104 -4 -112
10 -6 21 26 21 62 0 29 16 28 82 -8 30 -17 134 -63 229 -104 232 -98 249 -107
249 -127 0 -24 -76 -115 -157 -188 -94 -86 -129 -95 -337 -89 -115 3 -171 9
-196 20 -81 35 -204 177 -198 228 3 21 10 26 58 35 76 15 158 46 176 66 14 15
13 19 -8 44 l-23 26 -200 -35 c-110 -20 -232 -44 -272 -55 l-71 -19 -94 33
c-51 18 -118 36 -148 40 -30 4 -84 14 -120 22 -68 15 -150 10 -150 -9 0 -14
63 -73 112 -105 21 -14 38 -30 38 -35 0 -18 -49 -94 -82 -125 -69 -67 -105
-75 -362 -81 l-232 -5 -48 54 c-85 95 -165 224 -149 240 17 17 289 96 353 103
82 9 146 37 162 70 14 32 28 34 28 4 0 -13 10 -39 21 -58 20 -32 22 -33 35
-15 25 33 15 128 -13 140 -26 10 -128 -14 -280 -65 -179 -61 -333 -96 -481
-110 -122 -11 -144 -9 -214 26 -55 28 -58 28 -58 11 0 -22 45 -58 76 -62 16
-1 30 -8 32 -15 3 -7 24 -35 48 -64 24 -28 79 -98 121 -155 146 -194 193 -251
231 -276 48 -31 173 -50 436 -64 163 -9 181 -11 195 -30 26 -33 123 -41 591
-47 456 -7 490 -4 490 35 0 11 8 21 18 24 9 2 136 2 282 -1 l265 -5 65 55 c36
31 99 95 140 142 41 47 76 82 78 77 2 -5 -7 -29 -19 -53 -73 -145 -243 -315
-386 -387 -56 -28 -226 -75 -387 -107 -127 -25 -138 -26 -381 -19 -163 4 -294
3 -376 -5 -107 -10 -138 -9 -210 5 -46 8 -124 18 -173 22 -74 5 -88 4 -84 -8
8 -26 100 -67 187 -84 170 -33 187 -38 227 -60 22 -13 48 -39 58 -57 18 -34
18 -34 -15 -133 -29 -91 -32 -111 -33 -230 -1 -109 4 -149 27 -250 23 -97 57
-261 57 -272 0 -9 -75 0 -121 13 -162 48 -287 149 -562 455 -73 80 -180 204
-240 275 -59 71 -146 174 -193 229 -47 55 -104 123 -125 150 -82 106 -146 185
-191 237 -33 38 -58 82 -84 149 -192 497 -314 1040 -354 1569 -13 174 -13 591
0 756 10 128 39 376 45 382 5 6 311 71 448 97 279 51 632 95 927 115 200 13
968 4 1160 -14z m-541 -2773 c13 -9 40 -35 60 -57 20 -23 67 -74 105 -113 38
-40 66 -76 62 -80 -11 -11 -491 -7 -540 4 l-40 9 103 89 c120 105 198 165 215
165 6 0 22 -7 35 -17z"/>
<path d="M3556 4429 c-229 -26 -461 -114 -579 -220 -61 -54 -137 -160 -137
-190 0 -25 38 -40 84 -32 39 6 44 -1 21 -31 -21 -28 -19 -43 10 -72 14 -14 25
-28 25 -32 0 -11 -78 -84 -118 -111 -37 -26 -62 -68 -62 -105 0 -38 18 -41 38
-5 9 18 31 48 47 67 30 34 33 34 155 47 138 15 181 27 257 74 106 65 332 118
540 126 70 3 171 10 223 17 l96 11 57 -33 c31 -17 64 -29 72 -26 30 11 37 55
21 136 -20 98 -63 184 -123 243 -61 61 -185 123 -273 137 -74 11 -253 11 -354
-1z"/>
<path d="M1310 4414 c-265 -50 -324 -71 -396 -137 -77 -70 -104 -129 -104
-229 0 -68 3 -80 26 -107 l25 -30 52 21 c123 50 178 61 307 61 110 1 143 -4
275 -35 83 -20 182 -42 222 -48 46 -8 85 -21 111 -38 21 -15 67 -46 102 -69
34 -23 98 -56 142 -73 45 -17 104 -47 132 -66 28 -19 56 -34 63 -34 33 0 -5
84 -72 160 -48 54 -53 73 -30 104 21 28 19 50 -10 84 -34 41 -32 76 5 104 64
47 24 82 -204 183 -167 75 -260 107 -369 129 -82 17 -235 28 -277 20z"/>
<path d="M1360 3654 c-101 -27 -165 -75 -298 -224 l-41 -45 -95 0 -95 0 17
-30 c12 -21 27 -31 47 -33 17 -2 37 -10 47 -19 10 -9 54 -18 117 -24 56 -5
136 -16 179 -24 77 -15 181 -20 169 -9 -3 3 -51 17 -106 30 -126 29 -181 56
-181 87 0 52 83 162 161 212 62 40 135 56 287 62 78 3 142 9 142 13 0 7 -187
21 -260 19 -19 0 -60 -7 -90 -15z"/>
<path d="M3408 3630 c-105 -22 -295 -83 -359 -116 -44 -22 -109 -84 -109 -104
0 -12 81 -72 88 -65 2 2 -3 21 -13 42 l-18 37 46 42 c79 71 233 118 475 144
96 10 108 10 170 -11 191 -62 330 -184 320 -282 -2 -26 -12 -36 -55 -61 -29
-16 -51 -31 -50 -32 1 -2 36 2 77 8 88 12 215 5 283 -16 56 -18 54 -9 -8 31
-51 32 -53 47 -7 51 34 3 42 16 17 26 -13 5 -14 10 -4 28 7 13 19 28 28 35 9
7 11 13 5 13 -5 0 -15 -5 -22 -12 -6 -6 -46 -13 -89 -16 l-78 -4 -77 96 c-67
81 -87 99 -141 125 -35 17 -93 37 -128 46 -86 20 -243 18 -351 -5z"/>
<path d="M1520 3564 c-133 -15 -234 -51 -317 -113 -50 -36 -55 -63 -16 -88 36
-24 95 -21 168 7 54 20 78 23 230 23 136 1 182 -2 229 -17 60 -18 103 -16 176
6 78 24 72 51 -23 97 -116 57 -332 98 -447 85z"/>
<path d="M3395 3539 c-143 -24 -345 -104 -345 -135 0 -19 43 -39 122 -57 60
-13 75 -13 140 1 109 23 355 22 435 -2 97 -29 182 -15 183 30 0 46 -137 127
-254 149 -100 18 -222 25 -281 14z"/>
<path d="M874 2365 c-31 -30 -36 -39 -30 -65 14 -74 108 -258 178 -349 18 -24
58 -77 88 -117 30 -40 89 -115 130 -166 42 -51 111 -141 154 -201 99 -137 223
-268 278 -294 60 -29 138 -63 143 -63 16 0 -3 36 -62 115 -120 162 -305 436
-299 442 5 6 56 -4 125 -23 44 -13 14 12 -76 62 -160 89 -206 144 -496 592
-37 56 -73 102 -81 102 -8 0 -31 -16 -52 -35z"/>
</g>
</svg>
